<?xml version="1.0" encoding="utf-8"?>
<!-- Generator: Adobe Illustrator 23.0.5, SVG Export Plug-In . SVG Version: 6.00 Build 0)  -->
<svg version="1.1" id="Layer_1" xmlns="http://www.w3.org/2000/svg" xmlns:xlink="http://www.w3.org/1999/xlink" x="0px" y="0px"
	 viewBox="0 0 240.9 1259.3" style="enable-background:new 0 0 240.9 1259.3;" xml:space="preserve">
<style type="text/css">
	.st0{fill:#AAAAAA;}
	.st1{fill:url(#SVGID_1_);}
</style>
<g>
	<polygon class="st0" points="240.9,0 226.2,15.3 191.3,100.1 198.5,103 205.7,106 240.5,21.2 	"/>
	
		<linearGradient id="SVGID_1_" gradientUnits="userSpaceOnUse" x1="40.4965" y1="785.2816" x2="186.4965" y2="694.2816" gradientTransform="matrix(0.9848 -0.1736 -0.1736 -0.9848 142.1555 1028.345)">
		<stop  offset="0.3015" style="stop-color:#000000"/>
		<stop  offset="0.3937" style="stop-color:#030303"/>
		<stop  offset="0.452" style="stop-color:#0B0B0B"/>
		<stop  offset="0.5" style="stop-color:#1A1A1A"/>
		<stop  offset="0.5304" style="stop-color:#101010"/>
		<stop  offset="0.5863" style="stop-color:#040404"/>
		<stop  offset="0.6432" style="stop-color:#000000"/>
	</linearGradient>
	<path class="st1" d="M206.8,200.3l-18.1-7.5l21.1-70.3c2.2-7.6,0.6-14.4-3.9-16.3l-7.6-3.1l-7.6-3.1c-4.5-1.8-10.4,1.9-14.2,8.9
		l-34.5,64.9l-18.1-7.5c-4.3-1.7-9.1,0.3-10.8,4.5l0,0c-1.7,4.3,0.3,9.1,4.5,10.8l16.9,6.9l-3.1,7.3c-0.4,1-0.2,2.1,0.3,2.4l4.2,1.7
		l-1.1,2.7l-7.9-3.3c-0.4-0.2-1.1,0.3-1.4,0.9l-0.7,1.7c-0.3,0.8-0.2,1.4,0.3,1.7l7.9,3.3l-1.1,2.7l-7.9-3.3
		c-0.4-0.2-1.1,0.3-1.4,0.9l-0.7,1.7c-0.3,0.8-0.2,1.4,0.3,1.7l7.9,3.3l-1.1,2.7l-7.9-3.3c-0.4-0.2-1.1,0.3-1.4,0.9l-0.7,1.7
		c-0.3,0.8-0.2,1.4,0.3,1.7l7.9,3.3l-1.1,2.7l-7.9-3.3c-0.4-0.2-1.1,0.3-1.4,0.9l-0.7,1.7c-0.3,0.8-0.2,1.4,0.3,1.7l7.9,3.3
		l-1.1,2.7l-7.9-3.3c-0.4-0.2-1.1,0.3-1.4,0.9l-0.7,1.7c-0.3,0.8-0.2,1.4,0.3,1.7l7.9,3.3l-1.1,2.7l-7.9-3.3
		c-0.4-0.2-1.1,0.3-1.4,0.9l-0.7,1.7c-0.3,0.8-0.2,1.4,0.3,1.7l7.9,3.3l-1.1,2.7l-7.9-3.3c-0.4-0.2-1.1,0.3-1.4,0.9l-0.7,1.7
		c-0.3,0.8-0.2,1.4,0.3,1.7l7.9,3.3l-1.1,2.7l-7.9-3.3c-0.4-0.2-1.1,0.3-1.4,0.9l-0.7,1.7c-0.3,0.8-0.2,1.4,0.3,1.7l7.9,3.3
		l-1.1,2.7l-7.9-3.3c-0.4-0.2-1.1,0.3-1.4,0.9l-0.7,1.7c-0.3,0.8-0.2,1.4,0.3,1.7l7.9,3.3l-1.1,2.7l-7.9-3.3
		c-0.4-0.2-1.1,0.3-1.4,0.9l-0.7,1.7c-0.3,0.8-0.2,1.4,0.3,1.7l7.9,3.3l-1.1,2.7l-7.9-3.3c-0.4-0.2-1.1,0.3-1.4,0.9l-0.7,1.7
		c-0.3,0.8-0.2,1.4,0.3,1.7l7.9,3.3l-1.1,2.7l-4.2-1.7c-0.7-0.3-1.5,0.4-1.9,1.4L43,411.6L37.6,451l30.5,12.6L92,431.7l53.8-130.8
		c0.4-1,0.2-2.1-0.3-2.4l-4.2-1.7l1.1-2.7l7.9,3.3c0.4,0.2,1.1-0.3,1.4-0.9l0.7-1.7c0.3-0.8,0.2-1.4-0.3-1.7l-7.9-3.3l1.1-2.7
		l7.9,3.3c0.4,0.2,1.1-0.3,1.4-0.9l0.7-1.7c0.3-0.8,0.2-1.4-0.3-1.7l-7.9-3.3l1.1-2.7l7.9,3.3c0.4,0.2,1.1-0.3,1.4-0.9l0.7-1.7
		c0.3-0.8,0.2-1.4-0.3-1.7l-7.9-3.3l1.1-2.7l7.9,3.3c0.4,0.2,1.1-0.3,1.4-0.9l0.7-1.7c0.3-0.8,0.2-1.4-0.3-1.7l-7.9-3.3l1.1-2.7
		l7.9,3.3c0.4,0.2,1.1-0.3,1.4-0.9l0.7-1.7c0.3-0.8,0.2-1.4-0.3-1.7l-7.9-3.3l1.1-2.7l7.9,3.3c0.4,0.2,1.1-0.3,1.4-0.9l0.7-1.7
		c0.3-0.8,0.2-1.4-0.3-1.7l-7.9-3.3l1.1-2.7l7.9,3.3c0.4,0.2,1.1-0.3,1.4-0.9l0.7-1.7c0.3-0.8,0.2-1.4-0.3-1.7l-7.9-3.3l1.1-2.7
		l7.9,3.3c0.4,0.2,1.1-0.3,1.4-0.9l0.7-1.7c0.3-0.8,0.2-1.4-0.3-1.7l-7.9-3.3l1.1-2.7l7.9,3.3c0.4,0.2,1.1-0.3,1.4-0.9l0.7-1.7
		c0.3-0.8,0.2-1.4-0.3-1.7l-7.9-3.3l1.1-2.7l7.9,3.3c0.4,0.2,1.1-0.3,1.4-0.9l0.7-1.7c0.3-0.8,0.2-1.4-0.3-1.7l-7.9-3.3l1.1-2.7
		l7.9,3.3c0.4,0.2,1.1-0.3,1.4-0.9l0.7-1.7c0.3-0.8,0.2-1.4-0.3-1.7l-7.9-3.3l1.1-2.7l4.2,1.7c0.7,0.3,1.5-0.4,1.9-1.4l3.1-7.3
		l16.9,6.9c4.3,1.7,9.1-0.3,10.8-4.5C213.1,206.8,211.1,201.9,206.8,200.3z"/>
</g>
<path d="M226.4,1259.3c-0.2-0.9-19.6-212.3-35.7-256.4c-13-35.9-59.5-81.1-100.4-120.9c-8.3-8.2-16.3-15.9-23.8-23.3
	C24.3,816.5-0.4,739.2,0,674.4C0.2,640,13.5,562.2,17.3,540.1c2.9-16.9,18-62.7,27.8-85.9l13.8,5.9c-10.7,25.2-23.8,65.4-26.9,82.6
	C28.4,564,15.1,643.8,14.9,674.5C14.6,728.2,32.1,803.2,77,848.1c7.4,7.4,15.3,15.1,23.6,23.3c42.1,41,89.7,87.4,104.1,126.6
	c16.4,45,35.4,254.7,36.2,258.2L226.4,1259.3z"/>
</svg>
