<?xml version="1.0" encoding="utf-8"?>
<!-- Generator: Adobe Illustrator 23.0.5, SVG Export Plug-In . SVG Version: 6.00 Build 0)  -->
<svg version="1.1" id="Layer_1" xmlns="http://www.w3.org/2000/svg" xmlns:xlink="http://www.w3.org/1999/xlink" x="0px" y="0px"
	 viewBox="0 0 240.9 1257.8" style="enable-background:new 0 0 240.9 1257.8;" xml:space="preserve">
<style type="text/css">
	.st0{fill:#AAAAAA;}
	.st1{fill:url(#SVGID_1_);}
	.st2{fill:#A60F0A;}
</style>
<g>
	<polygon class="st0" points="0,0 14.7,15.3 49.6,100.1 42.4,103 35.2,106 0.3,21.2 	"/>
	
		<linearGradient id="SVGID_1_" gradientUnits="userSpaceOnUse" x1="40.2281" y1="683.8545" x2="206.8948" y2="790.799" gradientTransform="matrix(0.9848 0.1736 0.1736 -0.9848 -138.4961 986.5176)">
		<stop  offset="0.3166" style="stop-color:#A60F0A"/>
		<stop  offset="0.3842" style="stop-color:#A80F0A"/>
		<stop  offset="0.4212" style="stop-color:#B00F0A"/>
		<stop  offset="0.4508" style="stop-color:#BE0F0A"/>
		<stop  offset="0.4763" style="stop-color:#D10F0A"/>
		<stop  offset="0.495" style="stop-color:#E50F0A"/>
		<stop  offset="0.5161" style="stop-color:#D00F0A"/>
		<stop  offset="0.5424" style="stop-color:#BD0F0A"/>
		<stop  offset="0.5734" style="stop-color:#B00F0A"/>
		<stop  offset="0.6134" style="stop-color:#A80F0A"/>
		<stop  offset="0.6935" style="stop-color:#A60F0A"/>
	</linearGradient>
	<path class="st1" d="M34,200.3l18.1-7.5L31,122.4c-2.2-7.6-0.6-14.4,3.9-16.3l7.6-3.1l7.6-3.1c4.5-1.8,10.4,1.9,14.2,8.9l34.5,64.9
		l18.1-7.5c4.3-1.7,9.1,0.3,10.8,4.5l0,0c1.7,4.3-0.3,9.1-4.5,10.8l-16.9,6.9l3.1,7.3c0.4,1,0.2,2.1-0.3,2.4l-4.2,1.7l1.1,2.7
		l7.9-3.3c0.4-0.2,1.1,0.3,1.4,0.9l0.7,1.7c0.3,0.8,0.2,1.4-0.3,1.7l-7.9,3.3l1.1,2.7l7.9-3.3c0.4-0.2,1.1,0.3,1.4,0.9l0.7,1.7
		c0.3,0.8,0.2,1.4-0.3,1.7l-7.9,3.3l1.1,2.7l7.9-3.3c0.4-0.2,1.1,0.3,1.4,0.9l0.7,1.7c0.3,0.8,0.2,1.4-0.3,1.7l-7.9,3.3l1.1,2.7
		l7.9-3.3c0.4-0.2,1.1,0.3,1.4,0.9l0.7,1.7c0.3,0.8,0.2,1.4-0.3,1.7l-7.9,3.3l1.1,2.7l7.9-3.3c0.4-0.2,1.1,0.3,1.4,0.9l0.7,1.7
		c0.3,0.8,0.2,1.4-0.3,1.7l-7.9,3.3l1.1,2.7l7.9-3.3c0.4-0.2,1.1,0.3,1.4,0.9l0.7,1.7c0.3,0.8,0.2,1.4-0.3,1.7l-7.9,3.3l1.1,2.7
		l7.9-3.3c0.4-0.2,1.1,0.3,1.4,0.9l0.7,1.7c0.3,0.8,0.2,1.4-0.3,1.7l-7.9,3.3l1.1,2.7l7.9-3.3c0.4-0.2,1.1,0.3,1.4,0.9l0.7,1.7
		c0.3,0.8,0.2,1.4-0.3,1.7l-7.9,3.3l1.1,2.7l7.9-3.3c0.4-0.2,1.1,0.3,1.4,0.9l0.7,1.7c0.3,0.8,0.2,1.4-0.3,1.7l-7.9,3.3l1.1,2.7
		l7.9-3.3c0.4-0.2,1.1,0.3,1.4,0.9l0.7,1.7c0.3,0.8,0.2,1.4-0.3,1.7l-7.9,3.3l1.1,2.7l7.9-3.3c0.4-0.2,1.1,0.3,1.4,0.9l0.7,1.7
		c0.3,0.8,0.2,1.4-0.3,1.7l-7.9,3.3l1.1,2.7l4.2-1.7c0.7-0.3,1.5,0.4,1.9,1.4l54,131.1l5.5,39.3l-30.5,12.6l-23.8-31.8L95.1,300.9
		c-0.4-1-0.2-2.1,0.3-2.4l4.2-1.7l-1.1-2.7l-7.9,3.3c-0.4,0.2-1.1-0.3-1.4-0.9l-0.7-1.7c-0.3-0.8-0.2-1.4,0.3-1.7l7.9-3.3l-1.1-2.7
		l-7.9,3.3c-0.4,0.2-1.1-0.3-1.4-0.9l-0.7-1.7c-0.3-0.8-0.2-1.4,0.3-1.7l7.9-3.3l-1.1-2.7l-7.9,3.3c-0.4,0.2-1.1-0.3-1.4-0.9
		l-0.7-1.7c-0.3-0.8-0.2-1.4,0.3-1.7l7.9-3.3l-1.1-2.7l-7.9,3.3c-0.4,0.2-1.1-0.3-1.4-0.9l-0.7-1.7c-0.3-0.8-0.2-1.4,0.3-1.7
		l7.9-3.3l-1.1-2.7l-7.9,3.3c-0.4,0.2-1.1-0.3-1.4-0.9l-0.7-1.7c-0.3-0.8-0.2-1.4,0.3-1.7l7.9-3.3l-1.1-2.7l-7.9,3.3
		c-0.4,0.2-1.1-0.3-1.4-0.9l-0.7-1.7c-0.3-0.8-0.2-1.4,0.3-1.7l7.9-3.3l-1.1-2.7l-7.9,3.3c-0.4,0.2-1.1-0.3-1.4-0.9L71,252
		c-0.3-0.8-0.2-1.4,0.3-1.7l7.9-3.3l-1.1-2.7l-7.9,3.3c-0.4,0.2-1.1-0.3-1.4-0.9l-0.7-1.7c-0.3-0.8-0.2-1.4,0.3-1.7l7.9-3.3
		l-1.1-2.7l-7.9,3.3c-0.4,0.2-1.1-0.3-1.4-0.9l-0.7-1.7c-0.3-0.8-0.2-1.4,0.3-1.7l7.9-3.3l-1.1-2.7l-7.9,3.3
		c-0.4,0.2-1.1-0.3-1.4-0.9l-0.7-1.7c-0.3-0.8-0.2-1.4,0.3-1.7l7.9-3.3l-1.1-2.7l-7.9,3.3c-0.4,0.2-1.1-0.3-1.4-0.9l-0.7-1.7
		c-0.3-0.8-0.2-1.4,0.3-1.7l7.9-3.3l-1.1-2.7l-4.2,1.7c-0.7,0.3-1.5-0.4-1.9-1.4l-3.1-7.3l-16.9,6.9c-4.3,1.7-9.1-0.3-10.8-4.5
		C27.8,206.8,29.8,201.9,34,200.3z"/>
</g>
<path class="st2" d="M0,1254.6c0.8-3.5,19.8-213.2,36.2-258.2c14.3-39.1,62-85.5,104.1-126.6c8.3-8.2,16.2-15.8,23.6-23.3
	c44.9-44.9,62.4-119.9,62.1-173.6c-0.2-30.7-13.4-110.6-17.1-131.8c-3.1-17.2-16.2-57.4-26.9-82.6l13.8-5.9
	c9.8,23.2,24.9,69,27.8,85.9c3.9,22.2,17.1,100,17.3,134.3c0.4,64.8-24.3,142.1-66.5,184.3c-7.5,7.4-15.5,15.1-23.8,23.3
	c-40.9,39.8-87.4,85-100.4,120.9c-16.1,44.1-35.5,255.5-35.7,256.4L0,1254.6z"/>
</svg>
