<?xml version="1.0" encoding="utf-8"?>
<!-- Generator: Adobe Illustrator 23.0.5, SVG Export Plug-In . SVG Version: 6.00 Build 0)  -->
<svg version="1.1" id="Layer_1" xmlns="http://www.w3.org/2000/svg" xmlns:xlink="http://www.w3.org/1999/xlink" x="0px" y="0px"
	 viewBox="0 0 295 295" style="enable-background:new 0 0 295 295;" xml:space="preserve">
<style type="text/css">
	.st0{fill:#0A0A0A;}
	.st1{fill:#030303;}
	.st2{fill:#101010;}
</style>
<g>
	<g>
		<path class="st0" d="M176.7,189.7c0-1.6,0.1-3.2,0.1-4.7v-0.7h113.4c0.6-2.2,1.1-4.5,1.5-6.8H176.8V172h115.9
			c0.4-2.2,0.7-4.5,1-6.8H176.8v-5.4h117.4c0.3-3.9,0.5-7.8,0.5-11.8C294.7,66.4,228.6,0.3,147,0.3S-0.8,66.4-0.8,148
			c0,4,0.2,7.9,0.5,11.8h116v5.4H0.3c0.3,2.3,0.6,4.5,1,6.8h114.5v5.4H2.2c0.5,2.3,1,4.5,1.5,6.8h111.9v0.7c0,1.6,0,3.2,0.1,4.7H5.2
			c0.7,2.3,1.4,4.6,2.2,6.8h108.5c0.1,1.8,0.2,3.6,0.3,5.4H9.4c0.9,2.3,1.9,4.6,2.9,6.8h104.4c0.2,1.8,0.3,3.6,0.5,5.4H14.9
			c1.2,2.3,2.4,4.6,3.6,6.8H118c0.2,1.8,0.5,3.6,0.8,5.4h-97c1.4,2.3,3,4.6,4.5,6.8h93.5c0.3,1.8,0.6,3.6,1,5.4H30.3
			c1.8,2.3,3.7,4.6,5.6,6.8h86.2l1.1,5.4H40.8c2.3,2.3,4.6,4.6,7,6.8h76.8l1.1,5.4H54.2c2.9,2.4,6,4.6,9.1,6.8h63.8l1.1,5.4H72
			c4.2,2.5,8.5,4.7,12.9,6.8h44.9l1.1,5.4H98.2c15.2,5.3,31.6,8.2,48.6,8.2s33.4-2.9,48.6-8.2h-34.1l1.1-5.4H209
			c4.4-2.1,8.7-4.3,12.9-6.8H164l1.1-5.4h65.3c3.1-2.1,6.2-4.4,9.1-6.8h-73l1.1-5.4h78.2c2.4-2.2,4.8-4.5,7-6.8H169l1.1-5.4H258
			c1.9-2.2,3.8-4.5,5.6-6.8h-91.9c0.3-1.8,0.7-3.6,1-5.4h95c1.6-2.2,3.1-4.5,4.5-6.8h-98.4c0.3-1.8,0.5-3.6,0.8-5.4h100.9
			c1.3-2.2,2.5-4.5,3.6-6.8H175.3c0.2-1.8,0.3-3.6,0.5-5.4h105.9c1-2.2,2-4.5,2.9-6.8H176.3c0.1-1.8,0.2-3.6,0.3-5.4h110
			c0.8-2.2,1.5-4.5,2.2-6.8H176.7V189.7z"/>
		<path class="st1" d="M115.7,159.8h-116c0.1,1.8,0.3,3.6,0.5,5.4h115.4L115.7,159.8L115.7,159.8z"/>
		<path class="st1" d="M176.8,165.2h116.9c0.2-1.8,0.4-3.6,0.5-5.4H176.8V165.2z"/>
		<path class="st1" d="M176.8,177.5h114.9c0.4-1.8,0.7-3.6,1-5.4H176.8V177.5z"/>
		<path class="st1" d="M115.7,172H1.2c0.3,1.8,0.6,3.6,1,5.4h113.5V172z"/>
		<path class="st1" d="M176.8,185c0,1.6,0,3.2-0.1,4.7h111.9c0.5-1.8,1-3.6,1.5-5.4H176.8V185z"/>
		<path class="st1" d="M115.7,185v-0.7H3.7c0.5,1.8,1,3.6,1.5,5.4h110.5C115.7,188.1,115.7,186.5,115.7,185z"/>
		<path class="st1" d="M115.9,196.5H7.4c0.6,1.8,1.3,3.6,2,5.4h106.8C116.1,200.1,116,198.3,115.9,196.5z"/>
		<path class="st1" d="M176.3,201.9h108.2c0.7-1.8,1.4-3.6,2-5.4h-110C176.5,198.3,176.4,200.1,176.3,201.9z"/>
		<path class="st1" d="M116.7,208.7H12.3c0.8,1.8,1.7,3.6,2.6,5.4h102.3C117,212.3,116.8,210.5,116.7,208.7z"/>
		<path class="st1" d="M175.3,214.2H279c0.9-1.8,1.8-3.6,2.6-5.4H175.8C175.6,210.5,175.5,212.3,175.3,214.2z"/>
		<path class="st1" d="M173.7,226.4h98.4c1.1-1.8,2.2-3.6,3.3-5.4H174.5C174.3,222.8,174,224.6,173.7,226.4z"/>
		<path class="st1" d="M118,220.9H18.5c1,1.8,2.1,3.6,3.3,5.4h97C118.5,224.6,118.2,222.8,118,220.9z"/>
		<path class="st1" d="M119.8,233.2H26.3c1.3,1.8,2.7,3.7,4,5.4h90.5C120.5,236.8,120.1,235,119.8,233.2z"/>
		<path class="st1" d="M171.7,238.6h91.9c1.4-1.8,2.7-3.6,4-5.4h-95C172.3,235,172,236.8,171.7,238.6z"/>
		<path class="st1" d="M122.2,245.4H36c1.6,1.9,3.3,3.7,5,5.4h82.4L122.2,245.4z"/>
		<path class="st1" d="M169.2,250.8H253c1.7-1.8,3.4-3.6,5-5.4h-87.7L169.2,250.8z"/>
		<path class="st1" d="M124.7,257.6H48c2.1,1.9,4.2,3.7,6.4,5.4h71.5L124.7,257.6z"/>
		<path class="st1" d="M166.6,263.1h73c2.2-1.8,4.3-3.6,6.4-5.4h-78.2L166.6,263.1z"/>
		<path class="st1" d="M164,275.3h57.9c2.9-1.7,5.8-3.5,8.5-5.4h-65.3L164,275.3z"/>
		<path class="st1" d="M127.3,269.8H63.5c2.8,1.9,5.6,3.7,8.5,5.4h56.5L127.3,269.8z"/>
		<path class="st1" d="M161.5,287.5h34.1c4.6-1.6,9.1-3.4,13.4-5.4h-46.4L161.5,287.5z"/>
		<path class="st1" d="M129.9,282.1H85c4.4,2,8.8,3.8,13.4,5.4H131L129.9,282.1z"/>
	</g>
	<path class="st1" d="M166.5,53.4l-8.7-41.5c-0.9-4.1-4.4-7-8.6-7H147h-2.2c-4.2,0-7.7,2.9-8.6,7l-8.7,41.5c-4,18.9-6,38.2-6,57.6
		v37v37c0,19.4,2,38.7,6,57.6l9.9,46.9c0.2,1,1,1.6,2,1.6h7.7h7.7c1,0,1.8-0.7,2-1.6l9.9-46.9c4-18.9,6-38.2,6-57.6v-37v-37
		C172.5,91.7,170.5,72.4,166.5,53.4z"/>
	<path class="st2" d="M146.9,54.3L146.9,54.3c-1.8,0-3.2-1.4-3.2-3.2V11.3c0-1.8,1.4-3.2,3.2-3.2l0,0c1.8,0,3.2,1.4,3.2,3.2v39.8
		C150.1,52.9,148.7,54.3,146.9,54.3z"/>
</g>
</svg>
