<?xml version="1.0" encoding="utf-8"?>
<!-- Generator: Adobe Illustrator 23.0.5, SVG Export Plug-In . SVG Version: 6.00 Build 0)  -->
<svg version="1.1" id="Layer_1" xmlns="http://www.w3.org/2000/svg" xmlns:xlink="http://www.w3.org/1999/xlink" x="0px" y="0px"
	 viewBox="0 0 512 670.4" style="enable-background:new 0 0 512 670.4;" xml:space="preserve">
<style type="text/css">
	.st0{fill:#FFAA00;}
	.st1{fill:#202020;}
	.st2{fill:#080808;}
	.st3{fill:#D1FFCF;}
	.st4{fill:#FFC200;}
	.st5{fill:#E29000;}
	.st6{fill:#505050;}
	.st7{fill:none;stroke:#FFFFFF;stroke-width:2;stroke-miterlimit:10;}
	.st8{fill:#FFFFFF;}
	.st9{fill:#FFFFFF;stroke:#FFFFFF;stroke-width:1.5;stroke-miterlimit:10;}
	.st10{fill:none;stroke:#FFFFFF;stroke-width:1.5;stroke-miterlimit:10;}
</style>
<path class="st0" d="M490.4,13.1l-13.5-8.6c-4.5-2.9-9.8-4.4-15.2-4.4H256H50.3c-5.4,0-10.7,1.5-15.2,4.4l-13.5,8.6
	C8.1,21.7,0,36.5,0,52.5v146.1c0,3.6,0.7,7.1,2,10.4l16,40.4c1.3,3.3,2,6.8,2,10.4v410.7h236h236V259.8c0-3.6,0.7-7.1,2-10.4
	l16-40.4c1.3-3.3,2-6.8,2-10.4V52.5C512,36.5,503.9,21.7,490.4,13.1z"/>
<polygon class="st1" points="32,203.6 32,670.4 256,670.4 480,670.4 480,203.6 "/>
<path class="st2" d="M480,46.6c0-12.7-11.1-23-24.9-23H256H56.8c-13.7,0-24.9,10.3-24.9,23v157H480V46.6z"/>
<rect x="48" y="61.3" class="st3" width="416.1" height="102"/>
<g>
	<path class="st4" d="M0,52.5v146.1c0,3.6,0.7,7.1,2,10.4l16,40.4c1.3,3.3,2,6.8,2,10.4V14.1C7.5,22.9,0,37.1,0,52.5z"/>
	<path class="st5" d="M492.1,14.2v243.6c0.2-2.9,0.8-5.8,1.9-8.5l16-40.4c1.3-3.3,2-6.8,2-10.4v-146C512,37.2,504.5,22.9,492.1,14.2
		z"/>
</g>
<path class="st6" d="M256,286.4c-83.2,0-150.6,67.4-150.6,150.6c0,4.1,0.2,8.1,0.5,12c0.1,1.9,0.3,3.7,0.5,5.5
	c0.3,2.3,0.6,4.6,1,6.9c0.3,1.9,0.6,3.7,1,5.5c0.5,2.3,1,4.6,1.6,6.9c0.5,1.9,1,3.7,1.5,5.5c0.7,2.3,1.4,4.6,2.2,6.9
	c0.6,1.9,1.3,3.7,2,5.5c0.9,2.3,1.9,4.6,2.9,6.9c0.8,1.9,1.7,3.7,2.6,5.5c1.2,2.3,2.4,4.7,3.7,6.9c1.1,1.9,2.2,3.7,3.3,5.5
	c1.5,2.4,3,4.7,4.6,6.9c1.3,1.9,2.7,3.7,4.1,5.5c1.8,2.4,3.8,4.7,5.7,6.9c1.7,1.9,3.4,3.7,5.1,5.5c2.3,2.4,4.7,4.7,7.2,6.9
	c2.1,1.9,4.3,3.8,6.5,5.5c3,2.4,6.1,4.7,9.3,6.9c2.8,1.9,5.7,3.8,8.7,5.5c4.3,2.5,8.7,4.8,13.2,6.9c4.4,2.1,9,3.9,13.7,5.5
	c15.5,5.4,32.2,8.4,49.6,8.4s34-2.9,49.6-8.4c4.7-1.6,9.2-3.5,13.7-5.5c4.5-2.1,8.9-4.4,13.2-6.9c3-1.8,5.9-3.6,8.7-5.5
	c3.2-2.2,6.3-4.5,9.3-6.9c2.2-1.8,4.4-3.6,6.5-5.5c2.5-2.2,4.9-4.5,7.2-6.9c1.8-1.8,3.5-3.7,5.1-5.5c2-2.3,3.9-4.6,5.7-6.9
	c1.4-1.8,2.8-3.7,4.1-5.5c1.6-2.3,3.1-4.6,4.6-6.9c1.1-1.8,2.3-3.7,3.3-5.5c1.3-2.3,2.5-4.6,3.7-6.9c0.9-1.8,1.8-3.7,2.6-5.5
	c1-2.3,2-4.6,2.9-6.9c0.7-1.8,1.4-3.7,2-5.5c0.8-2.3,1.5-4.6,2.2-6.9c0.5-1.8,1-3.7,1.5-5.5c0.6-2.3,1.1-4.6,1.6-6.9
	c0.4-1.8,0.7-3.7,1-5.5c0.4-2.3,0.7-4.6,1-6.9c0.2-1.8,0.4-3.7,0.5-5.5c0.3-4,0.5-8,0.5-12C406.5,353.8,339.1,286.4,256,286.4z"/>
<g>
	<path class="st7" d="M228.4,281l-8.5-53.7c-1.2-7.4-7.6-12.9-15.1-12.9H63.7c-10.4,0-18.9,8.5-18.9,18.9v299
		c0,5.2,5.5,8.7,10.2,6.3l57.7-28.8"/>
	<path class="st7" d="M284.4,281l8.5-53.7c1.2-7.4,7.6-12.9,15.1-12.9H449c10.4,0,18.9,8.5,18.9,18.9v81c0,9.4-5.3,18-13.6,22.3
		L401,364"/>
	<path class="st7" d="M333.4,583.3l30.7,60.4c4.3,8.4,12.9,13.7,22.3,13.7H449c10.4,0,18.9-8.5,18.9-18.9V346.8
		c0-5.3-5.6-8.7-10.3-6.3l-54.5,28"/>
	<path class="st7" d="M115.5,515.3l-57.1,29.1c-8.4,4.3-13.7,12.9-13.7,22.3v71.7c0,10.4,8.5,18.9,18.9,18.9h287.8
		c5.3,0,8.7-5.5,6.3-10.2L327,586.2"/>
</g>
<circle class="st8" cx="256" cy="271.4" r="2"/>
<circle class="st8" cx="204.5" cy="279.5" r="2"/>
<circle class="st8" cx="158.1" cy="303.4" r="2"/>
<circle class="st8" cx="121.3" cy="340.5" r="2"/>
<circle class="st8" cx="97.9" cy="387.4" r="2"/>
<circle class="st8" cx="90.3" cy="438.9" r="2"/>
<circle class="st8" cx="99.1" cy="489.9" r="2"/>
<circle class="st8" cx="123.3" cy="535.9" r="2"/>
<circle class="st8" cx="159.5" cy="571.1" r="2"/>
<circle class="st8" cx="205.7" cy="594.1" r="2"/>
<circle class="st8" cx="255.9" cy="601.9" r="2"/>
<circle class="st8" cx="306.7" cy="594.1" r="2"/>
<circle class="st8" cx="352.5" cy="570.9" r="2"/>
<circle class="st8" cx="389.1" cy="535.1" r="2"/>
<circle class="st8" cx="412.8" cy="489.7" r="2"/>
<circle class="st8" cx="421.3" cy="438.9" r="2"/>
<circle class="st8" cx="414" cy="387.6" r="2"/>
<circle class="st8" cx="391.1" cy="341.3" r="2"/>
<circle class="st8" cx="354" cy="303.5" r="2"/>
<circle class="st8" cx="307.9" cy="279.7" r="2"/>
<g>
	<g>
		<path class="st8" d="M246.2,263.8c-3.4,0-5.1-2.3-5.1-7c0-4.8,1.7-7.2,5.1-7.2s5.1,2.4,5.1,7.2
			C251.3,261.4,249.6,263.8,246.2,263.8z M246.2,262c2,0,3.1-1.7,3.1-5.2c0-3.6-1-5.4-3.1-5.4s-3.1,1.8-3.1,5.4
			C243.1,260.2,244.1,262,246.2,262z"/>
		<path class="st8" d="M253.8,263.6v-13.9h2v13.9H253.8z M253.8,251.5v-1.9h9.2v1.9H253.8z M253.8,258.1v-1.9h7.4v1.9H253.8z"/>
		<path class="st8" d="M265.5,263.6v-13.9h2v13.9H265.5z M265.5,251.5v-1.9h9.2v1.9H265.5z M265.5,258.1v-1.9h7.4v1.9H265.5z"/>
	</g>
</g>
<g>
	<g>
		<path class="st8" d="M60.2,241.6L55.5,225H58l3.9,14.6h0.2L66,225h2.5l-4.7,16.6H60.2z"/>
	</g>
</g>
<g>
	<line class="st9" x1="71.5" y1="232.2" x2="93" y2="232.2"/>
	<line class="st9" x1="71.3" y1="235.8" x2="76.4" y2="235.8"/>
	<line class="st9" x1="79.6" y1="235.8" x2="84.6" y2="235.8"/>
	<line class="st9" x1="87.9" y1="235.9" x2="93" y2="235.9"/>
</g>
<g>
	<g>
		<path class="st8" d="M428.5,246.1l-4.7-16.6h2.5l3.9,14.6h0.2l3.9-14.6h2.5l-4.7,16.6H428.5z"/>
	</g>
</g>
<path class="st10" d="M441.2,238.5L441.2,238.5c2.5-3,7-3.1,9.6-0.3l0.3,0.3l0.3,0.3c2.6,2.8,7.1,2.7,9.6-0.3v0"/>
<g>
	<g>
		<path class="st8" d="M422.8,645.5l4.8-16.6h3.4l4.8,16.6h-2.5l-3.9-14.6h-0.2l-3.9,14.6H422.8z M425,641.4v-2.2h8.4v2.2H425z"/>
	</g>
</g>
<g>
	<line class="st9" x1="438.7" y1="636" x2="460.2" y2="636"/>
	<line class="st9" x1="438.6" y1="639.7" x2="443.7" y2="639.7"/>
	<line class="st9" x1="446.8" y1="639.7" x2="451.9" y2="639.7"/>
	<line class="st9" x1="455.2" y1="639.7" x2="460.2" y2="639.7"/>
</g>
<g>
	<g>
		<path class="st8" d="M59.1,644v-0.9c-0.7-0.2-1.3-0.5-1.8-1s-0.8-1.3-1.1-2.2s-0.4-2-0.4-3.3c0-5.3,2-8,6.1-8s6.1,2.7,6.1,8
			c0,1.3-0.1,2.4-0.3,3.4s-0.5,1.6-1,2.2s-1,0.8-1.6,1v0.8l-2.1-0.6c0.9-0.3,1.5-1,1.9-2.2s0.6-2.6,0.6-4.6c0-3.9-1.2-5.8-3.7-5.8
			s-3.7,1.9-3.7,5.8c0,1.9,0.2,3.4,0.7,4.5s1.2,1.9,2.1,2.2L59.1,644z M56.2,645.5v-2.2h5v2.2H56.2z M63.1,645.5v-2.2h4.7v2.2H63.1z
			"/>
	</g>
</g>
<g>
	<g>
	</g>
</g>
<g>
	<g>
	</g>
</g>
<g>
	<g>
		<path class="st8" d="M192.4,275.2v-1.9h3.7v1.9H192.4z M192.6,264.5v-2l3.3-1.2v2L192.6,264.5z M195.9,275.2v-13.9h2v13.9H195.9z
			 M197.7,275.2v-1.9h3.3v1.9H197.7z"/>
		<path class="st8" d="M203.6,275.2v-10.4h1.8l0.2,2.2v8.2H203.6z M207.4,275.2v-8.1c0-0.6-0.3-0.9-0.8-0.9c-0.7,0-1,0.5-1,1.4
			l-0.6-1.5h0.7c0.1-1,0.7-1.5,1.8-1.5c0.5,0,1,0.2,1.3,0.6s0.5,0.9,0.5,1.7v8.3H207.4z M211,275.2v-7.9c0-0.7-0.3-1.1-0.8-1.1
			c-0.7,0-1,0.5-1,1.4l-0.7-1.5h0.8c0-0.4,0.2-0.8,0.5-1s0.7-0.4,1.3-0.4c0.7,0,1.2,0.2,1.6,0.6c0.3,0.4,0.5,1,0.5,1.9v8.1H211z"/>
	</g>
</g>
<g>
	<g>
		<path class="st8" d="M141.1,299.1v-1.9h3.7v1.9H141.1z M141.3,288.4v-2l3.3-1.2v2L141.3,288.4z M144.6,299.1v-13.9h2v13.9H144.6z
			 M146.4,299.1v-1.9h3.3v1.9H146.4z"/>
		<path class="st8" d="M157,299.3c-3.2,0-4.7-2.3-4.7-7c0-4.8,1.6-7.2,4.7-7.2s4.7,2.4,4.7,7.2C161.8,297,160.2,299.3,157,299.3z
			 M157,297.5c1.8,0,2.6-1.7,2.6-5.2c0-3.6-0.9-5.4-2.6-5.4s-2.6,1.8-2.6,5.4C154.4,295.8,155.3,297.5,157,297.5z M157,293.8
			c-0.4,0-0.8-0.1-1.1-0.4s-0.4-0.6-0.4-1.1c0-0.4,0.1-0.8,0.4-1.1s0.6-0.4,1.1-0.4c0.4,0,0.8,0.1,1.1,0.4s0.4,0.6,0.4,1.1
			c0,0.4-0.1,0.8-0.4,1.1S157.5,293.8,157,293.8z"/>
		<path class="st8" d="M164,299.1v-10.4h1.8l0.2,2.2v8.2H164z M167.9,299.1V291c0-0.6-0.3-0.9-0.8-0.9c-0.7,0-1,0.5-1,1.4l-0.6-1.5
			h0.7c0.1-1,0.7-1.5,1.8-1.5c0.5,0,1,0.2,1.3,0.6c0.3,0.4,0.5,0.9,0.5,1.7v8.3H167.9z M171.4,299.1v-7.9c0-0.7-0.3-1.1-0.8-1.1
			c-0.7,0-1,0.5-1,1.4l-0.7-1.5h0.8c0-0.4,0.2-0.8,0.5-1c0.3-0.3,0.7-0.4,1.3-0.4c0.7,0,1.2,0.2,1.6,0.6c0.3,0.4,0.5,1,0.5,1.9v8.1
			H171.4z"/>
	</g>
</g>
<g>
	<g>
		<path class="st8" d="M91.9,335.3v-1.9h3.7v1.9H91.9z M92.1,324.6v-2l3.3-1.2v2L92.1,324.6z M95.4,335.3v-13.9h2v13.9H95.4z
			 M97.1,335.3v-1.9h3.3v1.9H97.1z"/>
		<path class="st8" d="M107.8,335.5c-3.2,0-4.7-2.3-4.7-7c0-4.8,1.6-7.2,4.7-7.2s4.7,2.4,4.7,7.2
			C112.5,333.2,110.9,335.5,107.8,335.5z M107.8,333.7c1.8,0,2.6-1.7,2.6-5.2c0-3.6-0.9-5.4-2.6-5.4s-2.6,1.8-2.6,5.4
			C105.2,332,106,333.7,107.8,333.7z M107.8,329.9c-0.4,0-0.8-0.1-1.1-0.4s-0.4-0.6-0.4-1.1c0-0.4,0.1-0.8,0.4-1.1s0.6-0.4,1.1-0.4
			c0.4,0,0.8,0.1,1.1,0.4s0.4,0.6,0.4,1.1c0,0.4-0.1,0.8-0.4,1.1S108.2,329.9,107.8,329.9z"/>
		<path class="st8" d="M119.5,335.5c-3.2,0-4.7-2.3-4.7-7c0-4.8,1.6-7.2,4.7-7.2s4.7,2.4,4.7,7.2
			C124.2,333.2,122.7,335.5,119.5,335.5z M119.5,333.7c1.8,0,2.6-1.7,2.6-5.2c0-3.6-0.9-5.4-2.6-5.4s-2.6,1.8-2.6,5.4
			C116.9,332,117.8,333.7,119.5,333.7z M119.5,329.9c-0.4,0-0.8-0.1-1.1-0.4s-0.4-0.6-0.4-1.1c0-0.4,0.1-0.8,0.4-1.1
			s0.6-0.4,1.1-0.4c0.4,0,0.8,0.1,1.1,0.4s0.4,0.6,0.4,1.1c0,0.4-0.1,0.8-0.4,1.1S120,329.9,119.5,329.9z"/>
		<path class="st8" d="M126.5,335.3v-10.4h1.8l0.2,2.2v8.2H126.5z M130.3,335.3v-8.1c0-0.6-0.3-0.9-0.8-0.9c-0.7,0-1,0.5-1,1.4
			l-0.6-1.5h0.7c0.1-1,0.7-1.5,1.8-1.5c0.5,0,1,0.2,1.3,0.6s0.5,0.9,0.5,1.7v8.3H130.3z M133.9,335.3v-7.9c0-0.7-0.3-1.1-0.8-1.1
			c-0.7,0-1,0.5-1,1.4l-0.7-1.5h0.8c0-0.4,0.2-0.8,0.5-1s0.7-0.4,1.3-0.4c0.7,0,1.2,0.2,1.6,0.6s0.5,1,0.5,1.9v8.1H133.9z"/>
	</g>
</g>
<g>
	<g>
		<path class="st8" d="M84.2,387.4v-1.9h3.7v1.9H84.2z M84.3,376.7v-2l3.3-1.2v2L84.3,376.7z M87.7,387.4v-13.9h2v13.9H87.7z
			 M89.4,387.4v-1.9h3.3v1.9H89.4z"/>
	</g>
</g>
<g>
	<g>
		<path class="st8" d="M53.1,446.1v-1.9h3.7v1.9H53.1z M53.2,435.4v-2l3.3-1.2v2L53.2,435.4z M56.6,446.1v-13.9h2v13.9H56.6z
			 M58.3,446.1v-1.9h3.3v1.9H58.3z"/>
		<path class="st8" d="M69,446.3c-3.2,0-4.7-2.3-4.7-7c0-4.8,1.6-7.2,4.7-7.2s4.7,2.4,4.7,7.2C73.7,443.9,72.1,446.3,69,446.3z
			 M69,444.5c1.8,0,2.6-1.7,2.6-5.2c0-3.6-0.9-5.4-2.6-5.4s-2.6,1.8-2.6,5.4C66.3,442.7,67.2,444.5,69,444.5z M69,440.7
			c-0.4,0-0.8-0.1-1.1-0.4c-0.3-0.3-0.4-0.6-0.4-1.1c0-0.4,0.1-0.8,0.4-1.1c0.3-0.3,0.6-0.4,1.1-0.4c0.4,0,0.8,0.1,1.1,0.4
			c0.3,0.3,0.4,0.6,0.4,1.1c0,0.4-0.1,0.8-0.4,1.1C69.8,440.6,69.4,440.7,69,440.7z"/>
		<path class="st8" d="M80.7,446.3c-3.2,0-4.7-2.3-4.7-7c0-4.8,1.6-7.2,4.7-7.2c3.2,0,4.7,2.4,4.7,7.2
			C85.4,443.9,83.8,446.3,80.7,446.3z M80.7,444.5c1.8,0,2.6-1.7,2.6-5.2c0-3.6-0.9-5.4-2.6-5.4s-2.6,1.8-2.6,5.4
			C78.1,442.7,78.9,444.5,80.7,444.5z M80.7,440.7c-0.4,0-0.8-0.1-1.1-0.4c-0.3-0.3-0.4-0.6-0.4-1.1c0-0.4,0.1-0.8,0.4-1.1
			c0.3-0.3,0.6-0.4,1.1-0.4c0.4,0,0.8,0.1,1.1,0.4c0.3,0.3,0.4,0.6,0.4,1.1c0,0.4-0.1,0.8-0.4,1.1C81.5,440.6,81.1,440.7,80.7,440.7
			z"/>
	</g>
</g>
<g>
	<g>
		<path class="st8" d="M72.3,500.4v-1.9H76v1.9H72.3z M72.5,489.7v-2l3.3-1.2v2L72.5,489.7z M75.8,500.4v-13.9h2v13.9H75.8z
			 M77.6,500.4v-1.9h3.3v1.9H77.6z"/>
		<path class="st8" d="M83.9,500.4v-14.6H86v14.6H83.9z M85.4,496.5v-1.9h1.2c0.9,0,1.6-0.1,2.1-0.4c0.6-0.3,1-0.8,1.3-1.5
			c0.3-0.7,0.5-1.6,0.7-2.7h2.1c-0.3,2.2-0.9,3.8-1.8,4.8s-2.3,1.6-3.9,1.6H85.4z M90.9,500.4l-2.9-5l2-0.8l3.6,5.8H90.9z"/>
	</g>
</g>
<g>
	<g>
		<path class="st8" d="M312.1,275.2v-1.9h3.7v1.9H312.1z M312.3,264.5v-2l3.3-1.2v2L312.3,264.5z M315.7,275.2v-13.9h2v13.9H315.7z
			 M317.4,275.2v-1.9h3.3v1.9H317.4z"/>
	</g>
</g>
<g>
	<g>
		<path class="st8" d="M357.9,303.4v-1.9h3.7v1.9H357.9z M358.1,292.6v-2l3.3-1.2v2L358.1,292.6z M361.5,303.4v-13.9h2v13.9H361.5z
			 M363.2,303.4v-1.9h3.3v1.9H363.2z"/>
		<path class="st8" d="M373.9,303.5c-3.2,0-4.7-2.3-4.7-7c0-4.8,1.6-7.2,4.7-7.2c3.2,0,4.7,2.4,4.7,7.2
			C378.6,301.2,377,303.5,373.9,303.5z M373.9,301.8c1.8,0,2.6-1.7,2.6-5.2c0-3.6-0.9-5.4-2.6-5.4s-2.6,1.8-2.6,5.4
			C371.2,300,372.1,301.8,373.9,301.8z M373.9,298c-0.4,0-0.8-0.1-1.1-0.4c-0.3-0.3-0.4-0.6-0.4-1.1c0-0.4,0.1-0.8,0.4-1.1
			c0.3-0.3,0.6-0.4,1.1-0.4c0.4,0,0.8,0.1,1.1,0.4c0.3,0.3,0.4,0.6,0.4,1.1c0,0.4-0.1,0.8-0.4,1.1C374.7,297.8,374.3,298,373.9,298z
			"/>
		<path class="st8" d="M385.6,303.5c-3.2,0-4.7-2.3-4.7-7c0-4.8,1.6-7.2,4.7-7.2c3.2,0,4.7,2.4,4.7,7.2
			C390.3,301.2,388.7,303.5,385.6,303.5z M385.6,301.8c1.8,0,2.6-1.7,2.6-5.2c0-3.6-0.9-5.4-2.6-5.4s-2.6,1.8-2.6,5.4
			C382.9,300,383.8,301.8,385.6,301.8z M385.6,298c-0.4,0-0.8-0.1-1.1-0.4c-0.3-0.3-0.4-0.6-0.4-1.1c0-0.4,0.1-0.8,0.4-1.1
			c0.3-0.3,0.6-0.4,1.1-0.4c0.4,0,0.8,0.1,1.1,0.4c0.3,0.3,0.4,0.6,0.4,1.1c0,0.4-0.1,0.8-0.4,1.1C386.4,297.8,386,298,385.6,298z"
			/>
	</g>
</g>
<g>
	<g>
		<path class="st8" d="M396.3,342.5v-1.9h3.7v1.9H396.3z M396.5,331.8v-2l3.3-1.2v2L396.5,331.8z M399.9,342.5v-13.9h2v13.9H399.9z
			 M401.6,342.5v-1.9h3.3v1.9H401.6z"/>
		<path class="st8" d="M408,342.5v-14.6h2.1v14.6H408z M409.4,338.6v-1.9h1.2c0.9,0,1.6-0.1,2.1-0.4c0.6-0.3,1-0.8,1.3-1.5
			c0.3-0.7,0.5-1.6,0.7-2.7h2.1c-0.3,2.2-0.9,3.8-1.8,4.8c-1,1.1-2.3,1.6-3.9,1.6H409.4z M415,342.5l-2.9-5l2-0.8l3.6,5.8H415z"/>
	</g>
</g>
<g>
	<g>
		<path class="st8" d="M428.7,453.1v-1.9h3.7v1.9H428.7z M428.9,442.3v-2l3.3-1.2v2L428.9,442.3z M432.2,453.1v-13.9h2v13.9H432.2z
			 M433.9,453.1v-1.9h3.3v1.9H433.9z"/>
		<path class="st8" d="M439.8,453.1v-10.4h1.8l0.2,2.2v8.2H439.8z M443.7,453.1v-8.1c0-0.6-0.3-0.9-0.8-0.9c-0.7,0-1,0.5-1,1.4
			l-0.6-1.5h0.7c0.1-1,0.7-1.5,1.8-1.5c0.5,0,1,0.2,1.3,0.6c0.3,0.4,0.5,0.9,0.5,1.7v8.3H443.7z M447.3,453.1v-7.9
			c0-0.7-0.3-1.1-0.8-1.1c-0.7,0-1,0.5-1,1.4l-0.7-1.5h0.8c0-0.4,0.2-0.8,0.5-1c0.3-0.3,0.7-0.4,1.3-0.4c0.7,0,1.2,0.2,1.6,0.6
			c0.3,0.4,0.5,1,0.5,1.9v8.1H447.3z"/>
	</g>
</g>
<g>
	<g>
		<path class="st8" d="M417.9,505.5v-1.9h3.7v1.9H417.9z M418.1,494.8v-2l3.3-1.2v2L418.1,494.8z M421.4,505.5v-13.9h2v13.9H421.4z
			 M423.1,505.5v-1.9h3.3v1.9H423.1z"/>
		<path class="st8" d="M433.8,505.7c-3.2,0-4.7-2.3-4.7-7c0-4.8,1.6-7.2,4.7-7.2s4.7,2.4,4.7,7.2
			C438.5,503.3,436.9,505.7,433.8,505.7z M433.8,503.9c1.8,0,2.6-1.7,2.6-5.2c0-3.6-0.9-5.4-2.6-5.4s-2.6,1.8-2.6,5.4
			C431.2,502.1,432,503.9,433.8,503.9z M433.8,500.1c-0.4,0-0.8-0.1-1.1-0.4c-0.3-0.3-0.4-0.6-0.4-1.1c0-0.4,0.1-0.8,0.4-1.1
			c0.3-0.3,0.6-0.4,1.1-0.4c0.4,0,0.8,0.1,1.1,0.4c0.3,0.3,0.4,0.6,0.4,1.1c0,0.4-0.1,0.8-0.4,1.1
			C434.6,500,434.2,500.1,433.8,500.1z"/>
		<path class="st8" d="M440.7,505.5v-10.4h1.8l0.2,2.2v8.2H440.7z M444.6,505.5v-8.1c0-0.6-0.3-0.9-0.8-0.9c-0.7,0-1,0.5-1,1.4
			l-0.6-1.5h0.7c0.1-1,0.7-1.5,1.8-1.5c0.5,0,1,0.2,1.3,0.6c0.3,0.4,0.5,0.9,0.5,1.7v8.3H444.6z M448.2,505.5v-7.9
			c0-0.7-0.3-1.1-0.8-1.1c-0.7,0-1,0.5-1,1.4l-0.7-1.5h0.8c0-0.4,0.2-0.8,0.5-1c0.3-0.3,0.7-0.4,1.3-0.4c0.7,0,1.2,0.2,1.6,0.6
			c0.3,0.4,0.5,1,0.5,1.9v8.1H448.2z"/>
	</g>
</g>
<g>
	<g>
		<path class="st8" d="M393.5,549.4v-1.9h3.7v1.9H393.5z M393.7,538.7v-2l3.3-1.2v2L393.7,538.7z M397.1,549.4v-13.9h2v13.9H397.1z
			 M398.8,549.4v-1.9h3.3v1.9H398.8z"/>
	</g>
</g>
<g>
	<g>
		<path class="st8" d="M355.1,586.9V585h3.7v1.9H355.1z M355.3,576.2v-2l3.3-1.2v2L355.3,576.2z M358.6,586.9V573h2v13.9H358.6z
			 M360.3,586.9V585h3.3v1.9H360.3z"/>
		<path class="st8" d="M371,587.1c-3.2,0-4.7-2.3-4.7-7c0-4.8,1.6-7.2,4.7-7.2c3.2,0,4.7,2.4,4.7,7.2
			C375.7,584.8,374.1,587.1,371,587.1z M371,585.3c1.8,0,2.6-1.7,2.6-5.2c0-3.6-0.9-5.4-2.6-5.4s-2.6,1.8-2.6,5.4
			C368.3,583.6,369.2,585.3,371,585.3z M371,581.5c-0.4,0-0.8-0.1-1.1-0.4c-0.3-0.3-0.4-0.6-0.4-1.1c0-0.4,0.1-0.8,0.4-1.1
			c0.3-0.3,0.6-0.4,1.1-0.4c0.4,0,0.8,0.1,1.1,0.4c0.3,0.3,0.4,0.6,0.4,1.1c0,0.4-0.1,0.8-0.4,1.1
			C371.8,581.4,371.4,581.5,371,581.5z"/>
	</g>
</g>
<g>
	<g>
		<path class="st8" d="M419.9,389.6v-1.9h3.7v1.9H419.9z M420.1,378.9v-2l3.3-1.2v2L420.1,378.9z M423.4,389.6v-13.9h2v13.9H423.4z
			 M425.1,389.6v-1.9h3.3v1.9H425.1z"/>
		<path class="st8" d="M435.8,389.8c-3.2,0-4.7-2.3-4.7-7c0-4.8,1.6-7.2,4.7-7.2c3.2,0,4.7,2.4,4.7,7.2
			C440.5,387.5,438.9,389.8,435.8,389.8z M435.8,388c1.8,0,2.6-1.7,2.6-5.2c0-3.6-0.9-5.4-2.6-5.4s-2.6,1.8-2.6,5.4
			C433.2,386.3,434,388,435.8,388z M435.8,384.2c-0.4,0-0.8-0.1-1.1-0.4c-0.3-0.3-0.4-0.6-0.4-1.1c0-0.4,0.1-0.8,0.4-1.1
			c0.3-0.3,0.6-0.4,1.1-0.4c0.4,0,0.8,0.1,1.1,0.4c0.3,0.3,0.4,0.6,0.4,1.1c0,0.4-0.1,0.8-0.4,1.1
			C436.6,384.1,436.2,384.2,435.8,384.2z"/>
		<path class="st8" d="M447.1,389.8c-1.1,0-1.7-0.7-2-2.2h-0.6l-1.4-1.5v-6.8h2.1v6.2c0,0.7,0.2,1.3,0.5,1.7
			c0.3,0.4,0.8,0.6,1.4,0.6c0.8,0,1.3-0.2,1.7-0.7c0.4-0.4,0.6-1.2,0.6-2.3l0.5,2.8h-0.7c-0.1,0.7-0.4,1.3-0.7,1.6
			C448.2,389.6,447.7,389.8,447.1,389.8z M443.1,394.1v-8.7l1.8,1.9l0.4,6.8H443.1z M449.4,386.7v-7.4h2.1v6.8L449.4,386.7z
			 M449.6,389.7l-0.2-2.5v-1.8h2.1v2.3l1.4,0.2v1.7L449.6,389.7z"/>
	</g>
</g>
<g>
	<g>
		<path class="st8" d="M100.1,556.3v-1.9h3.7v1.9H100.1z M100.3,545.5v-2l3.3-1.2v2L100.3,545.5z M103.7,556.3v-13.9h2v13.9H103.7z
			 M105.4,556.3v-1.9h3.3v1.9H105.4z"/>
		<path class="st8" d="M116.1,556.5c-3.2,0-4.7-2.3-4.7-7c0-4.8,1.6-7.2,4.7-7.2s4.7,2.4,4.7,7.2
			C120.8,554.1,119.2,556.5,116.1,556.5z M116.1,554.7c1.8,0,2.6-1.7,2.6-5.2c0-3.6-0.9-5.4-2.6-5.4s-2.6,1.8-2.6,5.4
			C113.4,552.9,114.3,554.7,116.1,554.7z M116.1,550.9c-0.4,0-0.8-0.1-1.1-0.4c-0.3-0.3-0.4-0.6-0.4-1.1c0-0.4,0.1-0.8,0.4-1.1
			c0.3-0.3,0.6-0.4,1.1-0.4c0.4,0,0.8,0.1,1.1,0.4c0.3,0.3,0.4,0.6,0.4,1.1c0,0.4-0.1,0.8-0.4,1.1
			C116.9,550.8,116.5,550.9,116.1,550.9z"/>
	</g>
</g>
<g>
	<g>
		<path class="st8" d="M131.3,589.7v-1.9h3.7v1.9H131.3z M131.5,579v-2l3.3-1.2v2L131.5,579z M134.9,589.7v-13.9h2v13.9H134.9z
			 M136.6,589.7v-1.9h3.3v1.9H136.6z"/>
		<path class="st8" d="M147.3,589.9c-3.2,0-4.7-2.3-4.7-7c0-4.8,1.6-7.2,4.7-7.2s4.7,2.4,4.7,7.2C152,587.5,150.4,589.9,147.3,589.9
			z M147.3,588.1c1.8,0,2.6-1.7,2.6-5.2c0-3.6-0.9-5.4-2.6-5.4s-2.6,1.8-2.6,5.4C144.6,586.3,145.5,588.1,147.3,588.1z M147.3,584.3
			c-0.4,0-0.8-0.1-1.1-0.4c-0.3-0.3-0.4-0.6-0.4-1.1c0-0.4,0.1-0.8,0.4-1.1c0.3-0.3,0.6-0.4,1.1-0.4c0.4,0,0.8,0.1,1.1,0.4
			c0.3,0.3,0.4,0.6,0.4,1.1c0,0.4-0.1,0.8-0.4,1.1C148.1,584.2,147.7,584.3,147.3,584.3z"/>
		<path class="st8" d="M159,589.9c-3.2,0-4.7-2.3-4.7-7c0-4.8,1.6-7.2,4.7-7.2c3.2,0,4.7,2.4,4.7,7.2
			C163.7,587.5,162.1,589.9,159,589.9z M159,588.1c1.8,0,2.6-1.7,2.6-5.2c0-3.6-0.9-5.4-2.6-5.4s-2.6,1.8-2.6,5.4
			C156.3,586.3,157.2,588.1,159,588.1z M159,584.3c-0.4,0-0.8-0.1-1.1-0.4c-0.3-0.3-0.4-0.6-0.4-1.1c0-0.4,0.1-0.8,0.4-1.1
			c0.3-0.3,0.6-0.4,1.1-0.4c0.4,0,0.8,0.1,1.1,0.4c0.3,0.3,0.4,0.6,0.4,1.1c0,0.4-0.1,0.8-0.4,1.1
			C159.8,584.2,159.4,584.3,159,584.3z"/>
	</g>
</g>
<g>
	<g>
		<path class="st8" d="M189.3,614.8V613h3.7v1.9H189.3z M189.5,604.1v-2l3.3-1.2v2L189.5,604.1z M192.9,614.8V601h2v13.9H192.9z
			 M194.6,614.8V613h3.3v1.9H194.6z"/>
		<path class="st8" d="M201,614.8v-14.6h2.1v14.6H201z M202.4,610.9v-1.9h1.2c0.9,0,1.6-0.1,2.1-0.4c0.6-0.3,1-0.8,1.3-1.5
			c0.3-0.7,0.5-1.6,0.7-2.7h2.1c-0.3,2.2-0.9,3.8-1.8,4.8s-2.3,1.6-3.9,1.6H202.4z M208,614.8l-2.9-5l2-0.8l3.6,5.8H208z"/>
	</g>
</g>
<g>
	<g>
		<path class="st8" d="M234.1,623.9v-1.9h3.7v1.9H234.1z M234.3,613.2v-2l3.3-1.2v2L234.3,613.2z M237.6,623.9v-13.9h2v13.9H237.6z
			 M239.4,623.9v-1.9h3.3v1.9H239.4z"/>
		<path class="st8" d="M250,624.1c-3.2,0-4.7-2.3-4.7-7c0-4.8,1.6-7.2,4.7-7.2s4.7,2.4,4.7,7.2C254.8,621.8,253.2,624.1,250,624.1z
			 M250,622.3c1.8,0,2.6-1.7,2.6-5.2c0-3.6-0.9-5.4-2.6-5.4s-2.6,1.8-2.6,5.4C247.4,620.6,248.3,622.3,250,622.3z M250,618.6
			c-0.4,0-0.8-0.1-1.1-0.4c-0.3-0.3-0.4-0.6-0.4-1.1c0-0.4,0.1-0.8,0.4-1.1c0.3-0.3,0.6-0.4,1.1-0.4c0.4,0,0.8,0.1,1.1,0.4
			c0.3,0.3,0.4,0.6,0.4,1.1c0,0.4-0.1,0.8-0.4,1.1C250.8,618.4,250.5,618.6,250,618.6z"/>
		<path class="st8" d="M261.8,624.1c-3.2,0-4.7-2.3-4.7-7c0-4.8,1.6-7.2,4.7-7.2c3.2,0,4.7,2.4,4.7,7.2
			C266.5,621.8,264.9,624.1,261.8,624.1z M261.8,622.3c1.8,0,2.6-1.7,2.6-5.2c0-3.6-0.9-5.4-2.6-5.4s-2.6,1.8-2.6,5.4
			C259.1,620.6,260,622.3,261.8,622.3z M261.8,618.6c-0.4,0-0.8-0.1-1.1-0.4c-0.3-0.3-0.4-0.6-0.4-1.1c0-0.4,0.1-0.8,0.4-1.1
			c0.3-0.3,0.6-0.4,1.1-0.4c0.4,0,0.8,0.1,1.1,0.4c0.3,0.3,0.4,0.6,0.4,1.1c0,0.4-0.1,0.8-0.4,1.1
			C262.6,618.4,262.2,618.6,261.8,618.6z"/>
		<path class="st8" d="M269.2,623.9v-14.6h2.1v14.6H269.2z M270.6,620v-1.9h1.2c0.9,0,1.6-0.1,2.1-0.4c0.6-0.3,1-0.8,1.3-1.5
			c0.3-0.7,0.5-1.6,0.7-2.7h2.1c-0.3,2.2-0.9,3.8-1.8,4.8s-2.3,1.6-3.9,1.6H270.6z M276.2,623.9l-2.9-5l2-0.8l3.6,5.8H276.2z"/>
	</g>
</g>
<g>
	<g>
		<path class="st8" d="M298.6,614.8V613h3.7v1.9H298.6z M298.8,604.1v-2l3.3-1.2v2L298.8,604.1z M302.1,614.8V601h2v13.9H302.1z
			 M303.9,614.8V613h3.3v1.9H303.9z"/>
		<path class="st8" d="M309.9,614.8V601h1.9v13.9H309.9z M313.6,609.2l-1.6-5.7h-0.6V601h1.4l1.6,6h0.1l0.2,2.2H313.6z M314.2,609.2
			l0.3-2.2h0.1l1.6-6h1.4v2.5H317l-1.6,5.7H314.2z M317.3,614.8V601h1.9v13.9H317.3z"/>
	</g>
</g>
</svg>
