<?xml version="1.0" encoding="utf-8"?>
<!-- Generator: Adobe Illustrator 23.0.5, SVG Export Plug-In . SVG Version: 6.00 Build 0)  -->
<svg version="1.1" id="Layer_1" xmlns="http://www.w3.org/2000/svg" xmlns:xlink="http://www.w3.org/1999/xlink" x="0px" y="0px"
	 viewBox="0 0 32 32" style="enable-background:new 0 0 32 32;" xml:space="preserve">
<polygon points="15.1,15.1 16,14.1 13.8,14.1 15,12.8 13.3,12.8 12.2,14.1 10.1,14.1 9.2,15.1 11.2,15.1 9.9,16.5 11.6,16.5 
	12.9,15.1 "/>
<polygon points="7.9,19.2 7,20.2 11.1,20.2 0.4,32 2,32 12.7,20.2 17.1,20.2 18,19.2 "/>
<polygon points="20.8,11.6 25.2,11.6 23.7,13.3 32,13.3 32,12.1 26.4,12.1 28.2,9.9 32,9.9 32,8.8 27.6,8.8 26.2,10.4 20.2,10.4 
	14,17.1 1.7,17.1 0.7,18.1 27.1,18.1 28,17.1 15.6,17.1 "/>
</svg>
