<?xml version="1.0" encoding="utf-8"?>
<!-- Generator: Adobe Illustrator 23.0.5, SVG Export Plug-In . SVG Version: 6.00 Build 0)  -->
<svg version="1.1" id="Layer_1" xmlns="http://www.w3.org/2000/svg" xmlns:xlink="http://www.w3.org/1999/xlink" x="0px" y="0px"
	 viewBox="0 0 128 128" style="enable-background:new 0 0 128 128;" xml:space="preserve">
<style type="text/css">
	.st0{fill:#F80000;stroke:#000000;stroke-width:2;stroke-miterlimit:10;}
	.st1{fill:url(#SVGID_1_);}
	.st2{fill:url(#SVGID_2_);}
</style>
<line class="st0" x1="39" y1="58.5" x2="0.5" y2="58.5"/>
<line class="st0" x1="61.5" y1="36" x2="61.5" y2="0.5"/>
<linearGradient id="SVGID_1_" gradientUnits="userSpaceOnUse" x1="33.4386" y1="42.9298" x2="67.7136" y2="61.9505">
	<stop  offset="0.7261" style="stop-color:#F80000"/>
	<stop  offset="1" style="stop-color:#F80000;stop-opacity:0"/>
</linearGradient>
<path class="st1" d="M78.1,36H44.9c-3.3,0-5.9,2.6-5.9,5.9v33.2c0,3.3,2.6,5.9,5.9,5.9h12.5l25-43.1C81.3,36.7,79.8,36,78.1,36z"/>
<linearGradient id="SVGID_2_" gradientUnits="userSpaceOnUse" x1="30.142" y1="38.4403" x2="65.1702" y2="60.8509">
	<stop  offset="0.7261" style="stop-color:#000000"/>
	<stop  offset="1" style="stop-color:#000000;stop-opacity:0"/>
</linearGradient>
<path class="st2" d="M57,82H44.9c-3.8,0-6.9-3.1-6.9-6.9V41.9c0-3.8,3.1-6.9,6.9-6.9h33.2c1.9,0,3.8,0.8,5.1,2.2l-1.1,1.7
	c-0.9-1-2.6-1.9-4-1.9H44.9c-2.7,0-4.9,2.2-4.9,4.9v33.2c0,2.7,2.2,4.9,4.9,4.9H58L57,82z"/>
</svg>
