<?xml version="1.0" encoding="utf-8"?>
<!-- Generator: Adobe Illustrator 23.0.5, SVG Export Plug-In . SVG Version: 6.00 Build 0)  -->
<svg version="1.1" id="Layer_1" xmlns="http://www.w3.org/2000/svg" xmlns:xlink="http://www.w3.org/1999/xlink" x="0px" y="0px"
	 viewBox="0 0 128 128" style="enable-background:new 0 0 128 128;" xml:space="preserve">
<style type="text/css">
	.st0{fill:#004488;}
	.st1{fill:#F80000;}
</style>
<g>
	<path class="st0" d="M38.8,48.5L22.3,62.2l16.5,13.5L33.6,81L11.2,62.1l22.4-18.9L38.8,48.5z"/>
	<path class="st0" d="M89.2,75.7L105.7,62L89.2,48.5l5.2-5.3l22.4,18.9L94.4,81L89.2,75.7z"/>
</g>
<polygon class="st1" points="116.8,16.8 111.2,11.2 64,58.3 16.8,11.2 11.2,16.8 58.3,64 11.2,111.2 16.8,116.8 64,69.7 
	111.2,116.8 116.8,111.2 69.7,64 "/>
<g>
	<polygon class="st0" points="64,72.5 63.3,73.2 70.9,91 78.8,91 76,84.5 	"/>
	<polygon class="st0" points="63.2,54.8 55.6,36.8 47.7,36.8 49.4,40.9 	"/>
</g>
</svg>
