<?xml version="1.0" encoding="utf-8"?>
<!-- Generator: Adobe Illustrator 23.0.5, SVG Export Plug-In . SVG Version: 6.00 Build 0)  -->
<svg version="1.1" id="Layer_1" xmlns="http://www.w3.org/2000/svg" xmlns:xlink="http://www.w3.org/1999/xlink" x="0px" y="0px"
	 viewBox="0 0 128 128" style="enable-background:new 0 0 128 128;" xml:space="preserve">
<style type="text/css">
	.st0{fill:#F80000;}
	.st1{fill:#F80000;stroke:#000000;stroke-width:2;stroke-miterlimit:10;}
</style>
<g>
	<path class="st0" d="M44.9,80c-2.7,0-4.9-2.2-4.9-4.9V41.9c0-2.7,2.2-4.9,4.9-4.9h33.2c2.7,0,4.9,2.2,4.9,4.9v33.2
		c0,2.7-2.2,4.9-4.9,4.9H44.9z"/>
	<path d="M78.1,38c2.2,0,3.9,1.8,3.9,3.9v33.2c0,2.2-1.8,3.9-3.9,3.9H44.9c-2.2,0-3.9-1.8-3.9-3.9V41.9c0-2.2,1.8-3.9,3.9-3.9H78.1
		 M78.1,36H44.9c-3.3,0-5.9,2.6-5.9,5.9v33.2c0,3.3,2.6,5.9,5.9,5.9h33.2c3.3,0,5.9-2.6,5.9-5.9V41.9C84,38.6,81.4,36,78.1,36
		L78.1,36z"/>
</g>
<line class="st1" x1="39" y1="58.5" x2="0.5" y2="58.5"/>
<line class="st1" x1="61.5" y1="36" x2="61.5" y2="0.5"/>
<line class="st1" x1="61.5" y1="80.5" x2="61.5" y2="128.5"/>
<line class="st1" x1="84" y1="58.5" x2="128.5" y2="58.5"/>
</svg>
