<?xml version="1.0" encoding="utf-8"?>
<!-- Generator: Adobe Illustrator 23.0.5, SVG Export Plug-In . SVG Version: 6.00 Build 0)  -->
<svg version="1.1" id="Layer_1" xmlns="http://www.w3.org/2000/svg" xmlns:xlink="http://www.w3.org/1999/xlink" x="0px" y="0px"
	 viewBox="0 0 128 128" style="enable-background:new 0 0 128 128;" xml:space="preserve">
<style type="text/css">
	.st0{fill:#004488;}
</style>
<g>
	<path class="st0" d="M38.8,85.5L22.3,99.2l16.5,13.5l-5.2,5.3L11.2,99.1l22.4-18.9L38.8,85.5z"/>
	<path class="st0" d="M78.8,128h-7.9L47.7,73.8h7.9L78.8,128z"/>
	<path class="st0" d="M89.2,112.7L105.7,99L89.2,85.5l5.2-5.3l22.4,18.9L94.4,118L89.2,112.7z"/>
</g>
<path class="st0" d="M90.9,32.3L67.6,9c-0.4-0.4-1.2-0.1-1.2,0.5v51.8c0,0.5,0.4,1,1,1h24.4c1.3,0,2.3,1,2.3,2.3l0,0
	c0,1.3-1,2.3-2.3,2.3H36.4c-1.3,0-2.3-1-2.3-2.3l0,0c0-1.3,1-2.3,2.3-2.3h24.4c0.5,0,1-0.4,1-1V9.5c0-0.6-0.7-0.9-1.2-0.5L37.4,32.3
	c-0.9,0.9-2.4,0.9-3.3,0l0,0c-0.9-0.9-0.9-2.4,0-3.3L62.5,0.6c0.9-0.9,2.4-0.9,3.3,0L94.2,29c0.9,0.9,0.9,2.4,0,3.3l0,0
	C93.3,33.2,91.8,33.2,90.9,32.3z"/>
</svg>
