<?xml version="1.0" encoding="utf-8"?>
<!-- Generator: Adobe Illustrator 23.0.5, SVG Export Plug-In . SVG Version: 6.00 Build 0)  -->
<svg version="1.1" id="Layer_1" xmlns="http://www.w3.org/2000/svg" xmlns:xlink="http://www.w3.org/1999/xlink" x="0px" y="0px"
	 viewBox="0 0 128 128" style="enable-background:new 0 0 128 128;" xml:space="preserve">
<style type="text/css">
	.st0{fill:#004488;}
</style>
<g>
	<path class="st0" d="M33.6,47.7L11.2,28.8L33.6,9.9l5.2,5.3L22.3,28.7l16.5,13.7L33.6,47.7z"/>
	<path class="st0" d="M55.6,54.1h-7.9L70.9-0.1h7.9L55.6,54.1z"/>
	<path class="st0" d="M94.4,9.9l22.4,18.9L94.4,47.7l-5.2-5.3l16.5-13.6L89.2,15.2L94.4,9.9z"/>
</g>
<path class="st0" d="M90.9,95.7L67.6,119c-0.4,0.4-1.2,0.1-1.2-0.5V66.6c0-0.5,0.4-1,1-1h24.4c1.3,0,2.3-1,2.3-2.3l0,0
	c0-1.3-1-2.3-2.3-2.3H36.4c-1.3,0-2.3,1-2.3,2.3l0,0c0,1.3,1,2.3,2.3,2.3h24.4c0.5,0,1,0.4,1,1v51.8c0,0.6-0.7,0.9-1.2,0.5
	L37.4,95.7c-0.9-0.9-2.4-0.9-3.3,0l0,0c-0.9,0.9-0.9,2.4,0,3.3l28.4,28.4c0.9,0.9,2.4,0.9,3.3,0L94.2,99c0.9-0.9,0.9-2.4,0-3.3l0,0
	C93.3,94.8,91.8,94.8,90.9,95.7z"/>
</svg>
