<?xml version="1.0" encoding="utf-8"?>
<!-- Generator: Adobe Illustrator 23.0.5, SVG Export Plug-In . SVG Version: 6.00 Build 0)  -->
<svg version="1.1" id="Layer_1" xmlns="http://www.w3.org/2000/svg" xmlns:xlink="http://www.w3.org/1999/xlink" x="0px" y="0px"
	 viewBox="0 0 128 128" style="enable-background:new 0 0 128 128;" xml:space="preserve">
<style type="text/css">
	.st0{fill:#004488;}
</style>
<g>
	<path class="st0" d="M99.1,45L63,27.2L27,45h-0.1v36.7L63,99.3l36.1-17.7V45L99.1,45z M63,28.4L96.7,45L63,61.7L29.4,45L63,28.4z
		 M62,97.6L28.5,81.1V46.7L62,63.3V97.6z M97.6,81.1L64.1,97.6V63.3l33.5-16.6V81.1z"/>
	<g>
		<path class="st0" d="M126.3,32.6c-2.9-5-16.5-2.5-30.9,5.8c-0.8,0.5-1.5,0.9-2.3,1.4l1.1,0.5c0.6-0.3,1.1-0.7,1.7-1
			c13.5-7.8,24.1-8.9,26.5-4.7s-3.6,13.2-17.1,21c-1.4,0.8-2.8,1.6-4.2,2.3V59c1.5-0.8,3.1-1.6,4.7-2.5
			C120.2,48.1,129.2,37.7,126.3,32.6z"/>
	</g>
	<g>
		<path class="st0" d="M104.8,73.1c-1.2-0.7-2.5-1.4-3.7-2v1.1c1.1,0.6,2.1,1.1,3.2,1.8c13.5,7.8,19.6,16.7,17.1,20.9
			c-2.4,4.1-13,3.1-26.5-4.6c-1.4-0.8-2.7-1.6-3.9-2.4l-1,0.5c1.4,0.9,2.9,1.9,4.5,2.8c14.4,8.3,28,10.9,30.9,5.8
			S119.2,81.4,104.8,73.1z"/>
	</g>
	<g>
		<path class="st0" d="M73.4,96.5c0,0.5,0,1,0,1.5c0,15.6-4.6,25.6-9.4,25.6s-9.4-10-9.4-25.6c0-0.2,0-0.4,0-0.6l-1-0.5
			c0,0.3,0,0.7,0,1c0,16.7,4.6,29.7,10.4,29.7s10.4-13,10.4-29.7c0-0.7,0-1.3,0-2L73.4,96.5z"/>
	</g>
	<g>
		<path class="st0" d="M34.2,87.4c-0.7,0.4-1.4,0.8-2.1,1.2C18.6,96.5,8,97.5,5.6,93.3s3.6-13.2,17.1-21c0.7-0.4,1.5-0.8,2.2-1.2V70
			c-0.9,0.5-1.8,1-2.7,1.5C7.8,79.9-1.2,90.3,1.7,95.4c2.9,5,16.5,2.5,30.9-5.8c0.9-0.5,1.8-1,2.6-1.6L34.2,87.4z"/>
	</g>
	<g>
		<path class="st0" d="M24.9,54.7c-0.4-0.2-0.8-0.5-1.2-0.7C10.2,46.2,4.1,37.3,6.5,33.1s13.1-3.2,26.5,4.6c0.6,0.4,1.3,0.7,1.9,1.1
			l1.1-0.5c-0.8-0.5-1.6-1-2.4-1.5C19.2,28.6,5.6,26,2.7,31s6.1,15.5,20.5,23.9c0.6,0.3,1.2,0.7,1.7,1
			C24.9,55.9,24.9,54.7,24.9,54.7z"/>
	</g>
	<g>
		<path class="st0" d="M54.6,29.1C54.8,14,59.3,4.5,64,4.5c4.8,0,9.4,10,9.4,25.6l0,0l1,0.5c0-0.2,0-0.4,0-0.5
			c0-16.7-4.6-29.7-10.4-29.7S53.7,13.2,53.6,29.7L54.6,29.1z"/>
	</g>
</g>
</svg>
