<?xml version="1.0" encoding="utf-8"?>
<!-- Generator: Adobe Illustrator 23.0.5, SVG Export Plug-In . SVG Version: 6.00 Build 0)  -->
<svg version="1.1" id="Layer_1" xmlns="http://www.w3.org/2000/svg" xmlns:xlink="http://www.w3.org/1999/xlink" x="0px" y="0px"
	 viewBox="0 0 128 128" style="enable-background:new 0 0 128 128;" xml:space="preserve">
<style type="text/css">
	.st0{fill:#004488;}
	.st1{fill:none;stroke:#004488;stroke-width:10;stroke-miterlimit:10;}
</style>
<g>
	<path class="st0" d="M38.8,85.5L22.3,99.2l16.5,13.5l-5.2,5.3L11.2,99.1l22.4-18.9L38.8,85.5z"/>
	<path class="st0" d="M78.8,128h-7.9L47.7,73.8h7.9L78.8,128z"/>
	<path class="st0" d="M89.2,112.7L105.7,99L89.2,85.5l5.2-5.3l22.4,18.9L94.4,118L89.2,112.7z"/>
</g>
<circle class="st1" cx="64.5" cy="32.5" r="14"/>
<path class="st0" d="M117.9,31.3C102.7,19,83.6,12.2,64,12.2S25.3,19,10.1,31.3l-0.2,0.2c-0.9,0.7-0.8,2.1,0.2,2.7l0,0
	C25.3,46.5,44.4,53.3,64,53.3s38.7-6.8,53.9-19.1l0,0c1-0.6,1.1-1.9,0.2-2.7L117.9,31.3z M13.1,32.8c29.7-23.2,72-23.2,101.7,0
	C85.2,56,42.8,56,13.1,32.8z"/>
</svg>
